# xmcd
#
# Track frame offsets: 
#        150
#        18184
#        41907
#        67872
#        112360
#        114809
#        162792
#        182707
#
# Disc length: 3550 seconds
#
# Revision: 0
# Processed by: cddbd v1.5.2PL0 Copyright (c) Steve Scherf et al.
# Submitted via: ExactAudioCopy v0.99pb5
#
DISCID=610ddc08
DTITLE=The Allman Brothers Band - 03-19-09 Beacon Theater (Disc1)
DYEAR=2009
DGENRE=Blues
TTITLE0=Little Martha
TTITLE1=Statesboro Blues
TTITLE2=Done Somebody Wrong
TTITLE3=Revival
TTITLE4=Stage Banter
TTITLE5=Woman Across The River
TTITLE6=Don't Keep Me Wonderin'
TTITLE7=Whipping Post
EXTD=
EXTT0=
EXTT1=
EXTT2=
EXTT3=
EXTT4=
EXTT5=
EXTT6=
EXTT7=
PLAYORDER=
